<svg width="1864" height="780" viewBox="0 0 1864 780" fill="none" xmlns="http://www.w3.org/2000/svg">
<path fill-rule="evenodd" clip-rule="evenodd" d="M-56 -13H1864V759.078C1864 759.078 1492.22 667.911 1292.74 676.349C896.166 693.122 852.176 764.515 502.979 775.442C182.062 785.483 -56 702.219 -56 702.219V-13Z" fill="url(#paint0_linear)"/>
<rect opacity="0.1" width="983.896" height="143.129" rx="71.5643" transform="matrix(0.882205 -0.470866 0.52971 0.848179 628.481 545.619)" fill="white"/>
<rect opacity="0.5" width="89.3115" height="10.7346" rx="5.36732" transform="matrix(0.882205 -0.470866 0.52971 0.848179 809.583 379.25)" fill="url(#paint1_linear)"/>
<rect opacity="0.5" width="74.4262" height="14.5687" rx="7.28437" transform="matrix(0.882205 -0.470866 0.52971 0.848179 656.677 487.44)" fill="url(#paint2_linear)"/>
<rect width="74.4262" height="14.5687" rx="7.28437" transform="matrix(0.882205 -0.470866 0.52971 0.848179 952.362 678.083)" fill="url(#paint3_linear)"/>
<rect opacity="0.05" width="731.191" height="143.129" rx="71.5643" transform="matrix(0.882205 -0.470866 0.52971 0.848179 34.98 331.293)" fill="white"/>
<rect opacity="0.1" width="882.969" height="143.129" rx="71.5643" transform="matrix(0.882205 -0.470866 0.52971 0.848179 1009.22 599.736)" fill="white"/>
<rect opacity="0.05" width="731.191" height="143.129" rx="71.5643" transform="matrix(0.882205 -0.470866 0.52971 0.848179 793.147 586.419)" fill="white"/>
<path opacity="0.1" fill-rule="evenodd" clip-rule="evenodd" d="M-56 661.262C56.5547 662.061 127.496 684.698 306.134 712.906C484.773 741.115 885.591 732.578 885.591 732.578C885.591 732.578 346.569 827.642 -56 725.889" fill="white"/>
<path opacity="0.1" fill-rule="evenodd" clip-rule="evenodd" d="M68.6818 752.17C68.6818 752.17 399.11 710.189 622.711 701.21C846.311 692.231 1160.09 709.394 1160.09 709.394C1160.09 709.394 1070.82 710.749 710.242 757.802C349.661 804.855 68.6818 752.17 68.6818 752.17Z" fill="white"/>
<path opacity="0.2" fill-rule="evenodd" clip-rule="evenodd" d="M1241.91 705.697C1347.28 686.409 1531.45 676.282 1730.1 695.773V764.753C1730.1 764.753 1417.38 710.245 1241.91 705.697Z" fill="white"/>
<defs>
<linearGradient id="paint0_linear" x1="-1001.88" y1="381.761" x2="-440.564" y2="1726.72" gradientUnits="userSpaceOnUse">
<stop stop-color="#250E8A"/>
<stop offset="1" stop-color="#00F9F7"/>
</linearGradient>
<linearGradient id="paint1_linear" x1="89.3115" y1="0" x2="0" y2="0" gradientUnits="userSpaceOnUse">
<stop stop-color="white" stop-opacity="0.01"/>
<stop offset="1" stop-color="#06CCE2"/>
<stop offset="1" stop-color="white"/>
</linearGradient>
<linearGradient id="paint2_linear" x1="74.4262" y1="0" x2="0" y2="0" gradientUnits="userSpaceOnUse">
<stop stop-color="white" stop-opacity="0.01"/>
<stop offset="1" stop-color="#06CCE2"/>
<stop offset="1" stop-color="white"/>
</linearGradient>
<linearGradient id="paint3_linear" x1="74.4262" y1="0" x2="0" y2="0" gradientUnits="userSpaceOnUse">
<stop stop-color="white" stop-opacity="0.01"/>
<stop offset="1" stop-color="#06CCE2"/>
<stop offset="1" stop-color="white"/>
</linearGradient>
</defs>
</svg>
